<svg width="50" height="50" viewBox="0 0 50 50" fill="none" xmlns="http://www.w3.org/2000/svg">
<rect width="50" height="50" rx="25" fill="white"/>
<path fill-rule="evenodd" clip-rule="evenodd" d="M43 25.426C43 24.0965 42.8807 22.8181 42.6591 21.5908H25V28.8437H35.0909C34.6562 31.1874 33.3352 33.1732 31.3494 34.5027V39.2073H37.4091C40.9545 35.9431 43 31.1363 43 25.426Z" fill="#4285F4"/>
<path fill-rule="evenodd" clip-rule="evenodd" d="M25 43.75C30.0625 43.75 34.3068 42.071 37.4091 39.2074L31.3494 34.5028C29.6704 35.6278 27.5227 36.2926 25 36.2926C20.1165 36.2926 15.9829 32.9943 14.5085 28.5625H8.24429V33.4205C11.3295 39.5483 17.6704 43.75 25 43.75Z" fill="#34A853"/>
<path fill-rule="evenodd" clip-rule="evenodd" d="M14.5086 28.5625C14.1336 27.4375 13.9205 26.2358 13.9205 25C13.9205 23.7642 14.1336 22.5625 14.5086 21.4375V16.5796H8.24435C6.97446 19.1108 6.25003 21.9745 6.25003 25C6.25003 28.0256 6.97446 30.8893 8.24435 33.4205L14.5086 28.5625Z" fill="#FBBC05"/>
<path fill-rule="evenodd" clip-rule="evenodd" d="M25 13.7074C27.7528 13.7074 30.2244 14.6534 32.1676 16.5114L37.5454 11.1335C34.2983 8.10795 30.054 6.25 25 6.25C17.6704 6.25 11.3295 10.4517 8.24429 16.5795L14.5085 21.4375C15.9829 17.0057 20.1165 13.7074 25 13.7074Z" fill="#EA4335"/>
</svg>
