<svg width="43" height="41" viewBox="0 0 43 41" fill="none" xmlns="http://www.w3.org/2000/svg">
<path fill-rule="evenodd" clip-rule="evenodd" d="M7.93513 31.6236C7.97262 31.2318 7.92322 30.8366 7.79046 30.466C7.65769 30.0955 7.44483 29.7588 7.16704 29.48C4.3302 26.6324 2.67627 22.9873 2.67627 19.0586C2.67627 10.5159 10.7158 3.00097 21.4101 3.00097C32.1045 3.00097 40.144 10.5159 40.144 19.0586C40.144 27.6039 32.1045 35.1162 21.4101 35.1162C19.5236 35.1189 17.6449 34.8742 15.8221 34.3882C15.1851 34.2175 14.5075 34.2881 13.9193 34.5863C12.8835 35.1108 10.6007 36.1117 6.86998 36.9762C7.39045 35.2289 7.74704 33.437 7.93513 31.6236ZM5.79412 39.9415L5.84764 39.9308C10.7452 38.9593 13.7373 37.6774 15.1289 36.9735C17.1779 37.52 19.2896 37.7953 21.4101 37.7924C33.2339 37.7924 42.8203 29.405 42.8203 19.0586C42.8203 8.71213 33.2339 0.324707 21.4101 0.324707C9.58639 0.324707 0 8.71213 0 19.0586C0 23.7688 1.98847 28.0776 5.27225 31.3694C5.04251 33.4839 4.572 35.5653 3.86988 37.573L3.86185 37.6024C3.66232 38.1775 3.44454 38.746 3.20884 39.3072C2.99742 39.805 3.40689 40.3617 3.93946 40.276C4.55945 40.1746 5.17775 40.063 5.79412 39.9415ZM21.4101 13.6873C25.8634 9.10821 36.9994 17.121 21.4101 27.4219C5.82088 17.1183 16.9568 9.10821 21.4101 13.6873Z" fill="white"/>
</svg>
