<svg width="229" height="167" viewBox="0 0 229 167" fill="none" xmlns="http://www.w3.org/2000/svg">
<path d="M66.1011 83.0692L71.211 106.569L90.422 84.7142L98.2472 91.631C98.2472 91.631 71.031 132.145 60.1696 129.497C49.3082 126.85 52.2661 111.481 49.9577 94.9602C47.6492 78.4397 66.1011 83.0692 66.1011 83.0692Z" fill="white"/>
<path d="M61.2184 130.014C60.8336 130.015 60.4502 129.97 60.0759 129.881C51.8046 127.86 51.296 118.915 50.6856 107.588C50.4586 103.538 50.2161 99.3547 49.6135 95.015C48.964 90.3699 49.8639 86.9075 52.2976 84.722C57.0632 80.445 65.8665 82.5914 66.2343 82.6854C66.3045 82.7052 66.3681 82.7431 66.419 82.7953C66.4698 82.8476 66.506 82.9123 66.5239 82.983L71.4694 105.7L90.1639 84.4244C90.234 84.3455 90.3325 84.2976 90.4378 84.2912C90.5402 84.2859 90.6408 84.3195 90.7195 84.3852L98.5448 91.3099C98.6161 91.3721 98.662 91.4585 98.6735 91.5525C98.6851 91.6464 98.6615 91.7414 98.6074 91.819C97.4649 93.4562 72.7762 130.007 61.2184 130.014ZM60.7645 82.8655C58.0804 82.8655 54.9347 83.3669 52.7827 85.3095C50.6308 87.2522 49.7387 90.5422 50.3491 94.9054C50.9595 99.2685 51.1942 103.475 51.429 107.541C52.055 118.546 52.5558 127.234 60.2558 129.121C64.5363 130.155 72.385 124.006 82.949 111.308C90.2422 102.543 96.5337 93.4014 97.6996 91.725L90.4456 85.286L71.5007 106.851C71.4535 106.906 71.3919 106.947 71.3228 106.969C71.2537 106.992 71.1799 106.994 71.1095 106.977C71.0386 106.958 70.9741 106.921 70.923 106.868C70.8719 106.816 70.8363 106.75 70.8199 106.679L65.7648 83.4295C64.1219 83.0699 62.4462 82.8809 60.7645 82.8655Z" fill="#3C4242"/>
<path d="M3.42883 152.433C1.86378 163.024 2.10636 165.938 2.10636 165.938L66.9933 164.638L58.4559 127.516L8.70304 132.85C6.2503 139.17 4.48211 145.736 3.42883 152.433Z" fill="#3C4242"/>
<path d="M2.10655 166.33C2.00871 166.332 1.91369 166.297 1.84095 166.231C1.76821 166.166 1.72325 166.075 1.71529 165.977C1.71529 165.852 1.46488 162.891 3.03776 152.379C4.10249 145.649 5.88105 139.053 8.34327 132.701C8.37048 132.636 8.41452 132.579 8.47089 132.536C8.52726 132.494 8.59394 132.467 8.66411 132.458L58.4092 127.124C58.504 127.112 58.5999 127.136 58.6781 127.191C58.7562 127.246 58.811 127.328 58.8317 127.422L67.3769 164.552C67.3898 164.609 67.3895 164.668 67.3759 164.725C67.3623 164.782 67.3359 164.835 67.2986 164.881C67.2642 164.927 67.2194 164.965 67.1677 164.991C67.1161 165.016 67.059 165.03 67.0013 165.029L2.11438 166.33H2.10655ZM3.81245 152.496C2.55259 160.909 2.46651 164.481 2.48217 165.539L66.5005 164.262L58.1509 127.939L8.98494 133.21C6.59486 139.441 4.8613 145.905 3.81245 152.496Z" fill="#3C4242"/>
<path d="M2.74797 148.462L63.5892 141.608C57.9237 105.41 55.0362 124.547 61.8833 90.691L69.0982 88.7326C65.749 71.2408 57.5168 63.5642 57.5168 63.5642C49.4803 49.0803 29.8859 57.556 29.8859 57.556C29.8859 57.556 7.41181 59.3577 1.6133 78.8C-2.22889 91.6623 4.36779 109.601 5.18944 125.259C5.41637 129.638 3.9061 129.458 2.74797 148.462Z" fill="#7D0CB4"/>
<path d="M46.6473 66.8385C44.3858 66.4938 42.2104 66.11 39.8706 66.7367C36.3962 67.6845 33.3366 69.6977 29.7604 70.5358C25.9417 71.421 21.7787 71.4523 17.8739 71.6325C16.7314 71.6873 17.9678 73.1365 16.9818 72.549C13.5152 70.481 13.2413 65.7732 12.9205 62.2403C12.0688 54.0777 12.332 45.837 13.703 37.7455C15.0177 30.6955 16.3793 24.0137 23.2107 20.4103C28.1876 17.7862 35.1833 16.2195 40.6375 18.1622C46.0917 20.1048 50.646 25.0947 52.5475 30.6172C54.6525 36.7272 55.3411 42.9233 58.8782 48.5163C60.4432 50.9838 62.376 53.3887 62.7908 56.2792C63.2446 59.765 61.1788 63.2743 58.213 65.1543C55.2472 67.0343 51.5459 67.5043 48.0402 67.0343C47.555 66.9795 47.1012 66.909 46.6473 66.8385Z" fill="white"/>
<path d="M17.3108 73.0817C17.12 73.0612 16.9373 72.9939 16.7787 72.8858C13.2808 70.8022 12.8661 66.3137 12.5687 62.7025V62.2717C11.7392 53.0048 11.9975 44.96 13.3512 37.6672C14.6189 30.86 15.9336 23.8178 23.0624 20.0578C27.5462 17.7078 34.8863 15.679 40.8022 17.7862C46.2798 19.7367 50.9202 24.6012 52.9469 30.484C53.6356 32.4737 54.1755 34.4947 54.6998 36.453C55.8266 40.6282 56.883 44.5683 59.2384 48.297C59.5201 48.7513 59.8175 49.1978 60.1149 49.6443C61.4608 51.6732 62.8537 53.7725 63.1667 56.2243C63.6206 59.671 61.7112 63.3918 58.4168 65.4755C54.8954 67.708 50.8107 67.7628 48.0092 67.4182L46.6085 67.2145L46.272 67.1675C44.1514 66.8385 42.1403 66.533 40.0118 67.1127C38.4037 67.5908 36.8341 68.1905 35.3167 68.9065C33.5568 69.7415 31.723 70.4102 29.839 70.904C26.5111 71.5631 23.1289 71.9093 19.7366 71.938L17.8742 72.0163C17.8253 72.0047 17.7744 72.0047 17.7255 72.0163C17.7118 72.1072 17.7118 72.1996 17.7255 72.2905C17.7647 72.4088 17.7677 72.536 17.7343 72.656C17.7008 72.776 17.6324 72.8833 17.5377 72.9642C17.4742 73.0232 17.3957 73.0639 17.3108 73.0817ZM35.2541 17.7C31.1185 17.7937 27.0608 18.8447 23.3988 20.7707C16.6065 24.3505 15.331 31.1968 14.0946 37.8238C12.7487 45.0462 12.5296 53.0205 13.3121 62.2168L13.3512 62.6477C13.6486 65.9925 14.0086 70.1363 16.9587 72.0477C16.9585 71.8599 17.022 71.6777 17.1386 71.5307C17.2286 71.4291 17.3397 71.3485 17.464 71.2944C17.5884 71.2402 17.723 71.2139 17.8586 71.2173L19.721 71.139C23.0613 71.1305 26.3936 70.8105 29.6747 70.1833C31.5003 69.6975 33.2765 69.0419 34.9802 68.225C36.5293 67.4969 38.13 66.8843 39.7692 66.392C42.0699 65.7732 44.1592 66.0943 46.3659 66.392L46.7024 66.4468C47.1563 66.5095 47.6101 66.58 48.0718 66.6348C50.7559 66.9717 54.645 66.9247 57.9708 64.8097C61.0069 62.8905 62.7755 59.4752 62.3607 56.3262C62.0634 54.0545 60.7252 52.0335 59.4341 50.0595C59.1367 49.6052 58.8315 49.1508 58.542 48.6965C56.124 44.866 55.005 40.6752 53.9173 36.6332C53.393 34.6905 52.853 32.7165 52.1801 30.7112C50.2238 25.0477 45.7556 20.3712 40.5048 18.499C38.8122 17.9377 37.0368 17.6675 35.2541 17.7Z" fill="#3C4242"/>
<path d="M49.2847 34.291C49.2847 34.291 53.3225 43.691 52.1175 51.0543C51.8334 53.1176 50.9544 55.0531 49.5881 56.6239C48.2219 58.1947 46.4277 59.3326 44.4252 59.8981L45.2078 72.7996C45.2078 72.7996 45.6851 79.3953 37.539 78.8861C35.182 78.7342 32.9025 77.9834 30.9158 76.7046C28.9292 75.4258 27.3008 73.6613 26.1846 71.5776L23.7666 47.9131C23.7666 47.9131 32.5856 42.0616 31.2554 33.5938C31.3101 33.5938 42.5237 38.1763 49.2847 34.291Z" fill="white"/>
<path d="M38.4705 79.3013H37.5706C35.145 79.1312 32.8019 78.3497 30.7592 77.0294C28.7164 75.7091 27.0406 73.8929 25.8875 71.75C25.8806 71.7059 25.8806 71.6609 25.8875 71.6168L23.4695 47.9523C23.4651 47.8806 23.4794 47.809 23.511 47.7444C23.5425 47.6799 23.5902 47.6247 23.6495 47.5841C23.7278 47.5293 32.2573 41.7718 30.9583 33.6565C30.9496 33.5878 30.9588 33.5181 30.9851 33.4541C31.0114 33.3901 31.0538 33.3341 31.1082 33.2914C31.1626 33.2488 31.2272 33.221 31.2956 33.2109C31.3639 33.2007 31.4338 33.2085 31.4982 33.2335C31.6078 33.2335 42.6101 37.6906 49.1285 33.9463C49.1793 33.925 49.2338 33.914 49.2889 33.914C49.344 33.914 49.3985 33.925 49.4493 33.9463C49.5529 33.9864 49.637 34.0649 49.6841 34.1656C49.8484 34.5495 53.7532 43.7301 52.5403 51.1483C52.2452 53.2263 51.3717 55.1792 50.0196 56.7834C48.6675 58.3876 46.8916 59.5783 44.895 60.2193L45.6776 72.8075C45.7096 73.6528 45.5747 74.4961 45.2806 75.2892C44.9866 76.0823 44.5391 76.8095 43.9638 77.4291C42.6883 78.6668 40.8494 79.3013 38.4705 79.3013ZM26.6231 71.468C27.7191 73.4726 29.3012 75.169 31.2239 76.401C33.1466 77.633 35.3479 78.361 37.6254 78.518C40.1999 78.6825 42.1327 78.1263 43.3769 76.8808C44.3772 75.78 44.9129 74.3342 44.8716 72.8466L44.089 59.9451C44.0846 59.8523 44.1127 59.7609 44.1684 59.6865C44.2241 59.6122 44.304 59.5596 44.3942 59.5378C46.3262 59.003 48.0573 57.9088 49.3701 56.3925C50.683 54.8762 51.519 53.0055 51.7734 51.0151C52.8064 44.6701 49.8641 36.7193 49.1285 34.8628C43.1109 37.9961 34.2605 35.1056 31.8191 34.2205C32.6016 41.7718 25.5589 47.2003 24.2755 48.1246L26.6231 71.468Z" fill="#3C4242"/>
<path d="M44.9257 51.7672C44.2671 51.7621 43.6101 51.7019 42.9615 51.587C42.9112 51.5767 42.8633 51.5566 42.8207 51.5278C42.7782 51.499 42.7416 51.4621 42.7133 51.4192C42.685 51.3763 42.6653 51.3282 42.6556 51.2777C42.6458 51.2272 42.6461 51.1752 42.6564 51.1248C42.6656 51.0739 42.6851 51.0254 42.7136 50.9822C42.7421 50.939 42.779 50.9021 42.8221 50.8735C42.8653 50.845 42.9137 50.8255 42.9646 50.8162C43.0154 50.8068 43.0676 50.8079 43.118 50.8193C43.118 50.8193 45.7239 51.3207 46.9524 50.5843C47.1402 49.566 44.6753 46.182 42.8755 44.0905C42.807 44.0115 42.7726 43.9086 42.78 43.8043C42.7873 43.7 42.8357 43.6029 42.9146 43.5343C42.9935 43.4658 43.0963 43.4314 43.2005 43.4387C43.3047 43.4461 43.4017 43.4945 43.4702 43.5735C44.2527 44.4665 48.0245 48.9863 47.7584 50.6235C47.7434 50.7502 47.6996 50.8719 47.6304 50.9791C47.5613 51.0864 47.4685 51.1764 47.3593 51.2423C46.6073 51.6255 45.7686 51.8063 44.9257 51.7672Z" fill="#3C4242"/>
<path d="M42.0777 55.9815C41.6028 55.9822 41.1288 55.9402 40.6613 55.8561C38.4436 55.4622 36.4412 54.2834 35.0193 52.5348C34.9723 52.4433 34.9632 52.3369 34.994 52.2387C35.0247 52.1404 35.0929 52.0583 35.1837 52.01C35.2753 51.9619 35.3821 51.9514 35.4813 51.9807C35.5806 52.0099 35.6647 52.0766 35.7158 52.1666C37.0329 53.7091 38.8449 54.7448 40.8413 55.0963C43.4862 55.5271 46.1155 54.5558 48.6665 52.2058C48.7032 52.1666 48.7475 52.1354 48.7967 52.114C48.846 52.0927 48.899 52.0817 48.9527 52.0818C49.0063 52.0818 49.0594 52.0929 49.1086 52.1144C49.1577 52.1358 49.202 52.1672 49.2385 52.2065C49.2751 52.2458 49.3032 52.2921 49.3211 52.3428C49.339 52.3934 49.3463 52.4472 49.3425 52.5007C49.3388 52.5543 49.3241 52.6065 49.2994 52.6542C49.2746 52.7018 49.2403 52.7438 49.1987 52.7776C46.8824 54.9083 44.5035 55.9815 42.0777 55.9815Z" fill="#3C4242"/>
<path d="M44.4249 59.8982C44.4249 59.8982 37.6013 61.2064 33.5791 60.4465C33.5791 60.4465 38.5403 70.3322 45.0822 69.8465L44.4249 59.8982Z" fill="#3C4242"/>
<path d="M44.6369 70.2695C38.1655 70.2695 33.4469 61.0262 33.2434 60.6189C33.2126 60.5537 33.2 60.4815 33.2069 60.4098C33.2138 60.3381 33.2399 60.2696 33.2825 60.2115C33.3251 60.1521 33.384 60.1064 33.4521 60.0799C33.5202 60.0535 33.5945 60.0475 33.666 60.0627C37.5786 60.799 44.3005 59.53 44.3709 59.5144C44.4256 59.5039 44.482 59.5054 44.536 59.519C44.5901 59.5325 44.6406 59.5577 44.6839 59.5927C44.7271 59.6266 44.7626 59.6693 44.7882 59.7179C44.8138 59.7664 44.8289 59.8199 44.8326 59.8747L45.4899 69.8309C45.4942 69.8823 45.4882 69.9341 45.4724 69.9833C45.4566 70.0325 45.4313 70.078 45.3978 70.1173C45.3644 70.1566 45.3235 70.189 45.2775 70.2124C45.2315 70.2358 45.1814 70.2499 45.1299 70.2539L44.6369 70.2695ZM34.3233 60.9479C35.544 63.0864 39.621 69.4862 44.6448 69.4862L44.0422 60.3604C42.6102 60.6189 37.8055 61.3709 34.3233 60.9479Z" fill="#3C4242"/>
<path d="M83.9192 60.3525L100.877 59.5222L92.3783 95.5085L74.1455 97.3023L83.9192 60.3525Z" fill="#3C4242"/>
<path d="M74.161 97.694C74.1047 97.695 74.0488 97.6836 73.9975 97.6606C73.9461 97.6376 73.9004 97.6035 73.8636 97.5608C73.8218 97.5118 73.7922 97.4536 73.7773 97.391C73.7623 97.3284 73.7624 97.2631 73.7775 97.2005L83.5513 60.2585C83.5716 60.1776 83.6178 60.1055 83.6827 60.0532C83.7477 60.0009 83.8279 59.9712 83.9112 59.9686L100.861 59.1305C100.922 59.1254 100.983 59.1357 101.039 59.1603C101.095 59.1849 101.144 59.2231 101.182 59.2715C101.221 59.3184 101.249 59.3743 101.263 59.4343C101.276 59.4942 101.275 59.5566 101.26 59.6161L92.7694 95.6025C92.7502 95.6818 92.7066 95.7532 92.6449 95.8065C92.5832 95.8599 92.5063 95.8926 92.4251 95.9001L74.161 97.694ZM84.2399 60.7363L74.6774 96.8558L92.0808 95.1481L100.391 59.9373L84.2399 60.7363Z" fill="#3C4242"/>
<path d="M61.8837 91.0905C61.7838 91.0907 61.6877 91.0526 61.615 90.9842C61.5422 90.9158 61.4984 90.8221 61.4924 90.7223C61.1524 85.5368 60.0066 80.436 58.0962 75.604C58.0539 75.5094 58.0507 75.4019 58.0874 75.305C58.124 75.2081 58.1976 75.1297 58.2919 75.087C58.3385 75.0649 58.3891 75.0525 58.4406 75.0504C58.4921 75.0484 58.5435 75.0567 58.5917 75.075C58.6399 75.0933 58.6839 75.1211 58.7212 75.1568C58.7584 75.1925 58.788 75.2354 58.8083 75.2828C60.7585 80.1986 61.9282 85.3896 62.2749 90.6675C62.2814 90.7722 62.2464 90.8753 62.1776 90.9544C62.1088 91.0336 62.0116 91.0825 61.9071 91.0905H61.8837Z" fill="#3C4242"/>
<path d="M35.2776 43.4716C35.2389 43.4792 35.199 43.4792 35.1603 43.4716C35.0621 43.4409 34.9799 43.3727 34.9316 43.2818C34.8833 43.1909 34.8727 43.0847 34.902 42.986C35.2207 41.9759 35.9233 41.1318 36.8583 40.636C37.3288 40.4524 37.8341 40.3761 38.3377 40.4127C38.8413 40.4493 39.3303 40.5978 39.7693 40.8475C39.8553 40.8964 39.9196 40.9762 39.9492 41.0707C39.9788 41.1652 39.9716 41.2674 39.9289 41.3568C39.8863 41.4461 39.8114 41.516 39.7193 41.5523C39.6273 41.5886 39.5249 41.5887 39.4329 41.5525C39.0933 41.3559 38.7147 41.2365 38.3239 41.2027C37.9331 41.1688 37.5396 41.2214 37.1714 41.3566C36.4525 41.7466 35.9095 42.3967 35.6533 43.174C35.6325 43.2582 35.5843 43.3332 35.5163 43.3871C35.4483 43.441 35.3644 43.4707 35.2776 43.4716Z" fill="#3C4242"/>
<path d="M46.1153 41.153H46.0449C45.9428 41.1322 45.8528 41.0721 45.7943 40.9858C45.7359 40.8994 45.7134 40.7935 45.7319 40.6908C45.7934 40.3689 45.9286 40.0655 46.1268 39.8046C46.325 39.5436 46.5809 39.3322 46.8744 39.1868C47.563 38.9127 48.4394 39.132 49.3706 39.8292C49.445 39.8929 49.4928 39.9823 49.5046 40.0795C49.5163 40.1768 49.4913 40.275 49.4343 40.3547C49.3773 40.4344 49.2925 40.4898 49.1967 40.51C49.1009 40.5301 49.001 40.5136 48.9168 40.4637C48.189 39.9388 47.5865 39.7508 47.1717 39.9075C46.9999 40.0053 46.8514 40.1393 46.7366 40.3002C46.6217 40.4612 46.5432 40.6453 46.5066 40.8397C46.4869 40.9288 46.4374 41.0085 46.3662 41.0655C46.295 41.1225 46.2065 41.1534 46.1153 41.153Z" fill="#3C4242"/>
<path d="M12.4746 50.1221C12.4746 50.1221 13.4293 52.9891 10.401 61.2925C7.37259 69.5958 7.49779 75.9565 15.0961 77.1001C22.6944 78.2438 27.1392 77.3273 28.1408 70.8335C29.1424 64.3396 23.297 57.2113 23.297 57.2113" fill="white"/>
<path d="M19.8386 77.907C18.2313 77.8869 16.6278 77.7455 15.0417 77.484C12.2559 77.0688 10.284 75.9173 9.19626 74.0843C7.58426 71.3583 7.85815 67.1283 10.0336 61.1515C12.9524 53.1537 12.1151 50.271 12.1072 50.2475C12.0908 50.1961 12.0846 50.1419 12.0891 50.0881C12.0936 50.0343 12.1086 49.9819 12.1333 49.9338C12.158 49.8858 12.1919 49.8432 12.2331 49.8083C12.2743 49.7734 12.3219 49.747 12.3733 49.7305C12.4247 49.714 12.4788 49.7079 12.5326 49.7124C12.5863 49.7168 12.6387 49.7319 12.6866 49.7566C12.7346 49.7813 12.7772 49.8153 12.8121 49.8565C12.8469 49.8977 12.8733 49.9454 12.8898 49.9968C12.8898 50.1222 13.8523 53.1302 10.8083 61.4257C8.71892 67.1675 8.46069 71.1782 9.90836 73.6848C10.8865 75.3377 12.6159 76.3247 15.1982 76.7085C22.4209 77.7973 26.8031 77.1785 27.7969 70.7943C28.7594 64.5825 23.1017 57.5247 23.0391 57.4777C23.006 57.4384 22.9811 57.3929 22.9659 57.3438C22.9507 57.2947 22.9455 57.243 22.9506 57.1919C22.9557 57.1408 22.971 57.0912 22.9956 57.0461C23.0202 57.001 23.0537 56.9613 23.0939 56.9293C23.174 56.8644 23.2765 56.8337 23.379 56.844C23.4816 56.8543 23.576 56.9046 23.6417 56.9842C23.8842 57.2818 29.5888 64.3788 28.5637 70.9432C27.703 76.2385 24.5416 77.907 19.8386 77.907Z" fill="#3C4242"/>
<path d="M222.88 1.06202H112.677C111.378 1.05992 110.13 1.57299 109.208 2.489C108.286 3.40501 107.763 4.64941 107.755 5.95002V39.5472L95.2344 54.9005L107.755 50.4512V144.898C107.755 146.204 108.273 147.458 109.196 148.382C110.119 149.306 111.371 149.825 112.677 149.825H222.88C224.185 149.825 225.437 149.306 226.36 148.382C227.283 147.458 227.802 146.204 227.802 144.898V5.95002C227.791 4.65005 227.268 3.40685 226.346 2.49128C225.424 1.57571 224.178 1.06198 222.88 1.06202Z" fill="white"/>
<path d="M222.908 150.216H112.705C111.297 150.214 109.947 149.653 108.951 148.656C107.955 147.659 107.394 146.308 107.392 144.898V50.9995L95.3959 55.3C95.3153 55.3296 95.2271 55.3318 95.1451 55.3064C95.0631 55.2809 94.9917 55.2291 94.942 55.159C94.8912 55.0912 94.8638 55.0087 94.8638 54.924C94.8638 54.8392 94.8912 54.7568 94.942 54.689L107.376 39.4375V5.94998C107.378 4.54069 107.939 3.18984 108.935 2.19406C109.932 1.19827 111.282 0.638976 112.69 0.638977H222.908C224.316 0.638976 225.666 1.19827 226.663 2.19406C227.659 3.18984 228.219 4.54069 228.222 5.94998V144.898C228.219 146.308 227.659 147.659 226.663 148.656C225.667 149.653 224.317 150.214 222.908 150.216ZM107.783 50.0595C107.864 50.0599 107.943 50.0844 108.01 50.13C108.062 50.1659 108.104 50.214 108.132 50.27C108.161 50.326 108.176 50.3882 108.175 50.4511V144.898C108.177 146.1 108.655 147.252 109.504 148.102C110.353 148.953 111.504 149.431 112.705 149.433H222.908C224.109 149.431 225.26 148.953 226.11 148.102C226.959 147.252 227.437 146.1 227.439 144.898V5.94998C227.437 4.74844 226.959 3.59683 226.109 2.74796C225.26 1.89908 224.108 1.42231 222.908 1.42231H112.705C111.505 1.42231 110.354 1.89908 109.504 2.74796C108.655 3.59683 108.177 4.74844 108.175 5.94998V39.5471C108.173 39.6354 108.143 39.7208 108.088 39.79L96.4523 54.0623L107.65 50.083C107.693 50.0676 107.738 50.0597 107.783 50.0595Z" fill="#3C4242"/>
<path d="M94.2411 97.3023C100.501 88.4115 100.501 88.4115 100.149 85.3487C99.8753 82.9987 98.7015 80.9385 97.4729 78.9958C95.9079 76.5205 92.4882 72.7292 91.2127 77.7817C90.5789 80.21 89.6007 83.1945 90.2737 85.6855C90.8997 87.9885 92.6213 89.8763 93.5681 92.0383" fill="white"/>
<path d="M94.2408 97.694C94.1599 97.6936 94.0808 97.669 94.0139 97.6235C93.9301 97.5622 93.8735 97.4707 93.8559 97.3683C93.8384 97.266 93.8614 97.1608 93.92 97.0751C100.102 88.3096 100.102 88.3096 99.7576 85.3956C99.4916 83.0456 98.263 80.9776 97.1362 79.2073C96.0093 77.437 94.2252 75.5335 93.067 75.7058C92.2845 75.8311 91.7994 76.9591 91.5568 77.8835L91.3298 78.7295C90.7351 80.9541 90.0465 83.4765 90.6256 85.5836C91.0554 86.9001 91.6721 88.148 92.4567 89.2888C92.9945 90.1196 93.4756 90.9858 93.8965 91.8816C93.938 91.9772 93.9399 92.0854 93.9018 92.1823C93.8636 92.2793 93.7885 92.3571 93.6931 92.3986C93.5976 92.4402 93.4896 92.4421 93.3927 92.4039C93.2958 92.3657 93.2181 92.2905 93.1766 92.195C92.7689 91.3317 92.3035 90.4968 91.7837 89.6961C90.9589 88.4902 90.3131 87.1709 89.8665 85.7795C89.2405 83.4686 89.9526 80.8366 90.5786 78.518L90.8056 77.6798C91.2359 76.0035 91.9559 75.0791 92.9418 74.9225C94.9842 74.6013 97.1753 77.7895 97.8013 78.7765C98.9751 80.6251 100.243 82.8028 100.54 85.2938C100.916 88.5055 100.916 88.5055 94.5617 97.5216C94.5267 97.5747 94.479 97.6183 94.423 97.6484C94.367 97.6784 94.3044 97.6941 94.2408 97.694Z" fill="#3C4242"/>
<path d="M17.3813 109.35C17.3813 109.35 45.474 135.341 53.5027 132.372C61.5314 129.403 70.8825 117.011 76.3915 108.371C81.9005 99.7307 89.0371 87.7927 90.0857 82.4738C91.1342 77.155 89.4909 73.1835 87.5033 74.1783C85.5157 75.1732 78.0739 82.466 78.0739 82.466C78.0739 82.466 80.5858 75.3377 79.412 75.3063C78.2382 75.275 74.7795 78.4397 73.6292 88.623L49.7622 112.906L30.1991 93.8087" fill="white"/>
<path d="M52.0784 132.983C42.4769 132.983 18.203 110.635 17.1152 109.632C17.0786 109.596 17.0495 109.552 17.0296 109.505C17.0097 109.457 16.9995 109.406 16.9995 109.354C16.9995 109.302 17.0097 109.251 17.0296 109.203C17.0495 109.156 17.0786 109.112 17.1152 109.076C17.1897 109.004 17.2893 108.963 17.393 108.963C17.4967 108.963 17.5964 109.004 17.6708 109.076C17.7413 109.146 24.7762 115.64 32.6953 121.68C43.0872 129.607 50.2395 133.187 53.3931 132.02C62.4938 128.659 73.0657 112.922 76.0863 108.175C81.7439 99.2998 88.7006 87.6203 89.7257 82.419C90.5082 78.6198 89.7883 75.4787 88.6849 74.6405C88.5523 74.5245 88.3871 74.4525 88.212 74.4343C88.0368 74.416 87.8603 74.4525 87.7067 74.5387C85.7896 75.4943 78.4417 82.701 78.3634 82.7715C78.3018 82.8338 78.2204 82.8726 78.1332 82.8812C78.046 82.8898 77.9586 82.8676 77.8861 82.8185C77.8108 82.7731 77.7534 82.7032 77.7235 82.6205C77.6936 82.5378 77.693 82.4473 77.7217 82.3642C78.6842 79.6303 79.5294 76.403 79.3337 75.7293C78.5512 75.8938 75.1942 78.4319 74.036 88.6465C74.0223 88.7336 73.9843 88.815 73.9265 88.8815L50.0595 113.165C50.0238 113.201 49.9812 113.23 49.9342 113.25C49.8871 113.27 49.8366 113.28 49.7856 113.28C49.7346 113.28 49.6841 113.27 49.6371 113.25C49.5901 113.23 49.5474 113.201 49.5117 113.165L29.9486 94.0672C29.8739 93.9945 29.8311 93.895 29.8297 93.7907C29.8282 93.6864 29.8682 93.5858 29.9408 93.511C30.0135 93.4362 30.1128 93.3934 30.217 93.3919C30.3212 93.3904 30.4217 93.4305 30.4964 93.5032L49.8169 112.303L73.2927 88.388C74.4743 78.2595 77.9878 74.899 79.4355 74.899C79.5373 74.8985 79.6375 74.9242 79.7266 74.9735C79.8156 75.0229 79.8905 75.0944 79.9441 75.181C80.4684 75.9643 79.6702 78.894 78.9738 81.0482C81.1648 78.941 85.7974 74.5778 87.3546 73.8023C87.6398 73.6511 87.963 73.5868 88.2842 73.6174C88.6055 73.6481 88.9107 73.7723 89.1622 73.9747C90.6803 75.1418 91.2437 78.7373 90.4925 82.5287C89.4439 87.8553 82.4404 99.621 76.7436 108.559C72.831 114.708 62.7364 129.364 53.6591 132.717C53.1527 132.901 52.6171 132.991 52.0784 132.983Z" fill="#3C4242"/>
<path d="M167.775 66.9795C163.765 66.9795 159.845 65.7891 156.51 63.559C153.176 61.3288 150.577 58.159 149.043 54.4503C147.508 50.7417 147.107 46.6608 147.889 42.7237C148.671 38.7867 150.602 35.1702 153.438 32.3318C156.274 29.4933 159.886 27.5603 163.819 26.7771C167.752 25.994 171.829 26.3959 175.534 27.9321C179.239 29.4683 182.405 32.0697 184.633 35.4074C186.861 38.7451 188.05 42.6691 188.05 46.6833C188.044 52.0643 185.906 57.2231 182.105 61.028C178.304 64.8329 173.15 66.9733 167.775 66.9795ZM167.775 27.1783C163.919 27.1783 160.15 28.3229 156.944 30.4674C153.739 32.6118 151.24 35.6598 149.765 39.2257C148.29 42.7917 147.904 46.7155 148.657 50.5008C149.41 54.2861 151.267 57.763 153.994 60.4916C156.721 63.2202 160.195 65.078 163.977 65.83C167.758 66.582 171.678 66.1945 175.24 64.7164C178.801 63.2383 181.845 60.7361 183.986 57.5262C186.127 54.3163 187.269 50.5429 187.267 46.6833C187.259 41.5115 185.203 36.5539 181.548 32.8976C177.894 29.2413 172.941 27.1845 167.775 27.1783Z" fill="#D1D3D4"/>
<path d="M214.288 13.1802C214.237 13.1823 214.186 13.1736 214.139 13.1547C214.092 13.1358 214.049 13.1071 214.014 13.0705C213.977 13.0341 213.948 12.9908 213.928 12.9431C213.908 12.8953 213.898 12.8441 213.898 12.7924C213.898 12.7407 213.908 12.6895 213.928 12.6418C213.948 12.5941 213.977 12.5508 214.014 12.5144L219.037 7.51669C219.111 7.44492 219.209 7.40472 219.311 7.40472C219.414 7.40472 219.512 7.44492 219.585 7.51669C219.622 7.5531 219.651 7.59641 219.671 7.64414C219.691 7.69187 219.701 7.74306 219.701 7.79477C219.701 7.84647 219.691 7.89767 219.671 7.94539C219.651 7.99312 219.622 8.03644 219.585 8.07285L214.561 13.1019C214.524 13.1329 214.48 13.1558 214.433 13.1693C214.385 13.1828 214.336 13.1865 214.288 13.1802Z" fill="#D1D3D4"/>
<path d="M219.311 13.1801C219.261 13.1823 219.21 13.1736 219.163 13.1547C219.115 13.1358 219.073 13.1071 219.037 13.0705L214.014 8.04148C213.977 8.00507 213.948 7.96175 213.928 7.91402C213.908 7.8663 213.898 7.8151 213.898 7.7634C213.898 7.71169 213.908 7.6605 213.928 7.61277C213.948 7.56504 213.977 7.52172 214.014 7.48531C214.087 7.41355 214.185 7.37335 214.288 7.37335C214.39 7.37335 214.488 7.41355 214.561 7.48531L219.585 12.5143C219.622 12.5507 219.651 12.594 219.671 12.6418C219.691 12.6895 219.701 12.7407 219.701 12.7924C219.701 12.8441 219.691 12.8953 219.671 12.943C219.651 12.9908 219.622 13.0341 219.585 13.0705C219.55 13.1071 219.507 13.1358 219.46 13.1547C219.413 13.1736 219.362 13.1823 219.311 13.1801Z" fill="#D1D3D4"/>
<path d="M182.017 41.5682C181.878 41.7923 181.721 42.0046 181.547 42.2026L164.864 58.8798C164.778 59.0091 164.662 59.1151 164.525 59.1885C164.389 59.2618 164.236 59.3002 164.081 59.3002C163.926 59.3002 163.774 59.2618 163.637 59.1885C163.501 59.1151 163.384 59.0091 163.299 58.8798C160.169 55.6525 157.038 52.4199 153.908 49.1822C153.79 49.0934 153.695 48.9773 153.632 48.8439C153.568 48.7104 153.538 48.5636 153.543 48.4158C153.548 48.2681 153.589 48.1238 153.663 47.9954C153.736 47.8669 153.839 47.7581 153.963 47.6781L156.311 45.5553C156.395 45.4493 156.502 45.3636 156.624 45.3047C156.746 45.2458 156.88 45.2153 157.015 45.2153C157.15 45.2153 157.284 45.2458 157.406 45.3047C157.528 45.3636 157.635 45.4493 157.719 45.5553L163.267 51.211C163.846 51.7985 164.277 51.8063 164.832 51.211L177.791 38.2938C177.875 38.1629 177.991 38.0552 178.128 37.9806C178.265 37.906 178.418 37.8669 178.574 37.8669C178.729 37.8669 178.882 37.906 179.019 37.9806C179.156 38.0552 179.272 38.1629 179.356 38.2938C180.092 39.0302 180.827 39.7665 181.547 40.5107C181.713 40.7056 181.865 40.9124 182.001 41.1295L182.017 41.5682Z" fill="#7D0CB4"/>
<path d="M36.9053 48.7513C35.8659 48.757 34.8463 48.4666 33.9656 47.9139C33.0849 47.3613 32.3795 46.5692 31.9318 45.6302C31.484 44.6911 31.3124 43.644 31.4369 42.611C31.5615 41.578 31.9771 40.6018 32.6352 39.7964C33.2933 38.991 34.1667 38.3896 35.1535 38.0626C36.1402 37.7356 37.1996 37.6963 38.2078 37.9495C39.216 38.2026 40.1314 38.7377 40.8472 39.4922C41.5629 40.2467 42.0495 41.1895 42.25 42.2105C42.5301 43.6254 42.2421 45.0939 41.4482 46.2976C40.6543 47.5014 39.4185 48.3436 38.0087 48.6416C37.6452 48.713 37.2757 48.7497 36.9053 48.7513ZM36.9053 38.6385C36.5924 38.6352 36.2801 38.6667 35.9741 38.7325C35.0582 38.9087 34.2154 39.3539 33.5533 40.0115C32.8911 40.6691 32.4397 41.5091 32.2564 42.4246C32.0731 43.3401 32.1664 44.2894 32.5243 45.1516C32.8822 46.0138 33.4885 46.7497 34.266 47.2656C35.0434 47.7814 35.9567 48.0538 36.8893 48.048C37.822 48.0421 38.7318 47.7584 39.5027 47.2328C40.2737 46.7073 40.8708 45.9639 41.2179 45.0973C41.565 44.2307 41.6464 43.2802 41.4518 42.3671C41.2313 41.3218 40.6616 40.3828 39.8365 39.705C39.0115 39.0272 37.9804 38.651 36.9131 38.6385H36.9053Z" fill="#3C4242"/>
<path d="M48.4474 46.3857C47.469 46.3738 46.5116 46.0998 45.6748 45.5921C44.838 45.0845 44.1523 44.3617 43.689 43.4989C43.2257 42.6362 43.0018 41.665 43.0404 40.6862C43.079 39.7075 43.3789 38.757 43.9087 37.9335C44.5082 37.0387 45.3577 36.3406 46.3511 35.9261C47.3446 35.5117 48.4379 35.3995 49.4947 35.6034C50.5515 35.8073 51.5249 36.3183 52.2934 37.0726C53.0618 37.8269 53.5912 38.7911 53.8155 39.8449C54.0957 41.2598 53.8076 42.7282 53.0137 43.932C52.2198 45.1358 50.9841 45.978 49.5742 46.276C49.203 46.349 48.8256 46.3857 48.4474 46.3857ZM48.4474 36.2729C48.132 36.2731 47.8175 36.3046 47.5083 36.3669C46.5924 36.543 45.7496 36.9883 45.0875 37.6459C44.4254 38.3034 43.9739 39.1435 43.7906 40.059C43.6074 40.9744 43.7006 41.9238 44.0585 42.786C44.4165 43.6482 45.0228 44.3841 45.8002 44.8999C46.5776 45.4158 47.4909 45.6882 48.4236 45.6823C49.3562 45.6765 50.266 45.3927 51.037 44.8672C51.8079 44.3417 52.405 43.5982 52.7521 42.7317C53.0992 41.8651 53.1807 40.9146 52.986 40.0015C52.7658 38.9575 52.1972 38.0195 51.3738 37.3418C50.5504 36.6642 49.5211 36.2872 48.4552 36.2729H48.4474Z" fill="#3C4242"/>
<path d="M41.7723 42.2183C41.7007 42.2198 41.6301 42.2008 41.5689 42.1635C41.5248 42.1377 41.4862 42.1033 41.4556 42.0624C41.4249 42.0214 41.4027 41.9748 41.3904 41.9252C41.378 41.8756 41.3756 41.8239 41.3834 41.7734C41.3912 41.7228 41.4091 41.6744 41.4359 41.6308C41.5458 41.4548 41.6896 41.3024 41.8589 41.1825C42.0282 41.0627 42.2197 40.9777 42.4221 40.9325C42.6245 40.8873 42.8338 40.8828 43.038 40.9193C43.2421 40.9558 43.437 41.0326 43.6113 41.1451C43.6903 41.1993 43.7467 41.2806 43.7699 41.3736C43.7931 41.4666 43.7814 41.5648 43.737 41.6498C43.6926 41.7347 43.6187 41.8004 43.5292 41.8345C43.4397 41.8685 43.3408 41.8685 43.2513 41.8345C42.4688 41.435 42.1401 41.9676 42.1088 42.0303C42.0737 42.088 42.0243 42.1357 41.9653 42.1687C41.9063 42.2016 41.8399 42.2187 41.7723 42.2183Z" fill="#3C4242"/>
<path d="M31.7638 43.315L22.3657 44.4587Z" fill="white"/>
<path d="M22.3661 44.8504C22.2624 44.8566 22.1604 44.8213 22.0826 44.7522C22.0048 44.6832 21.9576 44.5861 21.9514 44.4822C21.9452 44.3783 21.9804 44.2762 22.0494 44.1983C22.1184 44.1205 22.2154 44.0733 22.3192 44.067L31.7095 42.9155C31.7605 42.909 31.8123 42.9128 31.8618 42.9267C31.9113 42.9406 31.9575 42.9644 31.9976 42.9965C32.0378 43.0287 32.0711 43.0686 32.0955 43.1139C32.1199 43.1592 32.135 43.2089 32.1399 43.2602C32.1532 43.363 32.1253 43.4669 32.0622 43.5491C31.9991 43.6314 31.906 43.6852 31.8034 43.6989L22.4131 44.8425L22.3661 44.8504Z" fill="#3C4242"/>
<path d="M23.0627 47.874C23.0627 47.874 19.8544 37.0248 24.1505 29.638C27.7109 23.5123 37.0778 19.2745 43.9718 19.0473C42.3126 17.6716 40.295 16.7998 38.1569 16.5346C36.0188 16.2695 33.8496 16.6222 31.9053 17.5511C24.753 20.6845 20.9499 24.2173 19.5336 30.6406C17.5147 39.931 23.0627 47.874 23.0627 47.874Z" fill="#3C4242"/>
<path d="M23.0621 48.25C22.9996 48.2491 22.9382 48.2338 22.8825 48.2052C22.8269 48.1767 22.7786 48.1357 22.7413 48.0855C22.6865 47.9993 17.115 39.8918 19.1574 30.5467C20.5189 24.28 24.056 20.5357 31.756 17.1752C33.7773 16.2243 36.0266 15.8668 38.2428 16.1441C40.4589 16.4214 42.551 17.3222 44.2764 18.7418C44.331 18.7958 44.3689 18.8644 44.3856 18.9395C44.4022 19.0145 44.3969 19.0927 44.3703 19.1648C44.3445 19.2378 44.2968 19.3011 44.2338 19.3459C44.1708 19.3908 44.0955 19.4151 44.0181 19.4155C37.3823 19.6583 28.0625 23.6925 24.4863 29.8417C20.3233 36.9935 23.4065 47.6547 23.4378 47.7643C23.4638 47.853 23.4576 47.948 23.4204 48.0326C23.3832 48.1172 23.3172 48.1859 23.2343 48.2265C23.1789 48.2452 23.1205 48.2531 23.0621 48.25ZM36.8894 16.8383C35.2265 16.8503 33.5845 17.2105 32.069 17.8958C24.6272 21.1545 21.2232 24.75 19.9164 30.7268C18.6096 36.7037 20.6128 42.3593 22.084 45.3438C21.3954 41.623 20.7381 34.7297 23.8134 29.4422C27.3347 23.387 36.2086 19.3058 42.9226 18.7183C41.1435 17.506 39.0416 16.8565 36.8894 16.854V16.8383Z" fill="#3C4242"/>
<path d="M28.1802 45.9627C28.1802 45.9627 23.626 37.2834 19.502 43.1897C15.3781 49.096 22.3113 54.8927 26.2552 54.1094" fill="white"/>
<path d="M25.4802 54.5793C23.2187 54.5793 20.5268 53.0127 19.0165 50.6627C18.2218 49.5258 17.8093 48.1651 17.8389 46.7779C17.8684 45.3906 18.3385 44.0488 19.1809 42.9469C20.2686 41.3802 21.5284 40.5968 22.8509 40.7143C25.981 40.9102 28.4225 45.5553 28.532 45.7512C28.5788 45.8448 28.5869 45.9531 28.5547 46.0528C28.5226 46.1524 28.4526 46.2354 28.3599 46.2838C28.2684 46.3309 28.1621 46.34 28.064 46.3092C27.9659 46.2784 27.8838 46.2102 27.8356 46.1193C27.8356 46.0723 25.488 41.6622 22.8039 41.4977C21.7554 41.4272 20.7459 42.0695 19.8225 43.3934C19.0769 44.3715 18.6601 45.561 18.6319 46.791C18.6038 48.0211 18.9658 49.2284 19.666 50.2397C21.1841 52.5897 24.1029 54.1093 26.1766 53.702C26.2792 53.6835 26.385 53.706 26.4712 53.7645C26.5575 53.8231 26.6175 53.9131 26.6383 54.0153C26.6566 54.1171 26.634 54.222 26.5753 54.3071C26.5167 54.3922 26.4268 54.4506 26.3253 54.4697C26.0479 54.5342 25.7648 54.5709 25.4802 54.5793Z" fill="#3C4242"/>
<path d="M28.2584 92.43C28.2043 92.4294 28.1508 92.4181 28.101 92.3965C28.0513 92.375 28.0064 92.3438 27.9689 92.3046C27.875 92.195 18.2734 81.7766 11.6846 79.2543C11.6312 79.2408 11.5812 79.2162 11.538 79.182C11.4947 79.1478 11.4592 79.1049 11.4337 79.056C11.4082 79.0072 11.3932 78.9534 11.3899 78.8984C11.3865 78.8434 11.3948 78.7882 11.4142 78.7366C11.4336 78.685 11.4637 78.6381 11.5025 78.5989C11.5412 78.5597 11.5878 78.5292 11.6392 78.5093C11.6906 78.4894 11.7456 78.4806 11.8006 78.4834C11.8556 78.4863 11.9094 78.5007 11.9585 78.5258C18.7273 81.15 28.1489 91.3333 28.548 91.772C28.6202 91.8465 28.6605 91.9462 28.6605 92.0501C28.6605 92.1539 28.6202 92.2536 28.548 92.3281C28.5091 92.3638 28.4634 92.3912 28.4136 92.4087C28.3638 92.4262 28.3111 92.4334 28.2584 92.43Z" fill="#3C4242"/>
<path d="M144.705 35.2467C144.624 35.2463 144.545 35.2217 144.479 35.1762L135.871 29.2228C135.787 29.1616 135.73 29.0701 135.713 28.9677C135.695 28.8654 135.718 28.7602 135.777 28.6745C135.806 28.6324 135.843 28.5965 135.886 28.5689C135.929 28.5413 135.977 28.5226 136.027 28.5139C136.077 28.5051 136.129 28.5065 136.179 28.5179C136.228 28.5294 136.275 28.5506 136.317 28.5805L144.925 34.5338C144.967 34.5622 145.004 34.5988 145.032 34.6415C145.06 34.6842 145.08 34.7322 145.089 34.7826C145.099 34.833 145.098 34.8847 145.087 34.9348C145.076 34.985 145.056 35.0324 145.026 35.0743C144.991 35.1269 144.943 35.1701 144.887 35.2001C144.831 35.2302 144.769 35.2461 144.705 35.2467Z" fill="#D1D3D4"/>
<path d="M136.114 64.8645C136.051 64.8662 135.988 64.852 135.932 64.8233C135.876 64.7945 135.828 64.7521 135.793 64.7C135.734 64.6143 135.711 64.5091 135.729 64.4068C135.746 64.3044 135.803 64.2129 135.887 64.1517L144.495 58.1983C144.537 58.1687 144.585 58.1477 144.636 58.1368C144.686 58.1259 144.739 58.1251 144.79 58.1346C144.841 58.144 144.889 58.1636 144.933 58.192C144.976 58.2204 145.013 58.2572 145.042 58.3002C145.072 58.3421 145.093 58.3895 145.103 58.4396C145.114 58.4898 145.115 58.5415 145.105 58.5919C145.096 58.6423 145.077 58.6903 145.048 58.733C145.02 58.7757 144.983 58.8123 144.941 58.8407L136.333 64.794C136.269 64.8404 136.192 64.8651 136.114 64.8645Z" fill="#D1D3D4"/>
<path d="M143.806 47.075H136.129C136.025 47.075 135.926 47.0338 135.852 46.9603C135.779 46.8869 135.738 46.7872 135.738 46.6834C135.738 46.5795 135.779 46.4799 135.852 46.4064C135.926 46.333 136.025 46.2917 136.129 46.2917H143.806C143.909 46.2917 144.009 46.333 144.082 46.4064C144.156 46.4799 144.197 46.5795 144.197 46.6834C144.197 46.7872 144.156 46.8869 144.082 46.9603C144.009 47.0338 143.909 47.075 143.806 47.075Z" fill="#D1D3D4"/>
<path d="M191.634 35.2467C191.57 35.2461 191.508 35.2302 191.452 35.2001C191.396 35.1701 191.348 35.1269 191.313 35.0743C191.283 35.0324 191.263 34.985 191.252 34.9348C191.241 34.8847 191.24 34.833 191.25 34.7826C191.259 34.7322 191.279 34.6842 191.307 34.6415C191.335 34.5988 191.372 34.5622 191.415 34.5338L200.022 28.5805C200.064 28.5506 200.111 28.5294 200.161 28.5179C200.21 28.5065 200.262 28.5051 200.312 28.5139C200.362 28.5226 200.41 28.5413 200.453 28.5689C200.496 28.5965 200.533 28.6324 200.562 28.6745C200.592 28.7166 200.614 28.7642 200.625 28.8146C200.637 28.8651 200.638 28.9173 200.629 28.9683C200.621 29.0192 200.602 29.068 200.574 29.1117C200.547 29.1554 200.511 29.1931 200.468 29.2228L191.861 35.1762C191.794 35.2217 191.715 35.2463 191.634 35.2467Z" fill="#D1D3D4"/>
<path d="M200.226 64.8645C200.147 64.864 200.071 64.8394 200.007 64.794L191.399 58.8407C191.356 58.8123 191.32 58.7757 191.291 58.733C191.263 58.6903 191.244 58.6423 191.234 58.5919C191.225 58.5415 191.225 58.4898 191.236 58.4396C191.247 58.3895 191.268 58.3421 191.297 58.3002C191.326 58.2572 191.364 58.2204 191.407 58.192C191.45 58.1636 191.499 58.144 191.55 58.1346C191.601 58.1251 191.653 58.1259 191.704 58.1368C191.754 58.1477 191.802 58.1687 191.845 58.1983L200.453 64.1517C200.495 64.1814 200.531 64.2191 200.559 64.2628C200.586 64.3065 200.605 64.3553 200.614 64.4062C200.623 64.4572 200.621 64.5094 200.61 64.5598C200.598 64.6103 200.577 64.6579 200.547 64.7C200.511 64.7521 200.463 64.7945 200.407 64.8233C200.351 64.852 200.289 64.8662 200.226 64.8645Z" fill="#D1D3D4"/>
<path d="M200.226 47.075H192.549C192.446 47.075 192.346 47.0338 192.273 46.9603C192.199 46.8869 192.158 46.7872 192.158 46.6834C192.158 46.5795 192.199 46.4799 192.273 46.4064C192.346 46.333 192.446 46.2917 192.549 46.2917H200.226C200.33 46.2917 200.429 46.333 200.503 46.4064C200.576 46.4799 200.617 46.5795 200.617 46.6834C200.617 46.7872 200.576 46.8869 200.503 46.9603C200.429 47.0338 200.33 47.075 200.226 47.075Z" fill="#D1D3D4"/>
<rect x="124.5" y="118" width="86.9477" height="19.3581" rx="2.58953" fill="#7D0CB4"/>
<path d="M132.991 130.22C132.719 130.22 132.474 130.173 132.257 130.08C132.039 129.983 131.868 129.847 131.744 129.672C131.62 129.497 131.558 129.293 131.558 129.06H132.269C132.284 129.235 132.352 129.379 132.472 129.492C132.597 129.604 132.77 129.661 132.991 129.661C133.22 129.661 133.399 129.606 133.527 129.497C133.655 129.385 133.719 129.241 133.719 129.066C133.719 128.93 133.679 128.82 133.597 128.734C133.519 128.649 133.42 128.583 133.3 128.536C133.183 128.489 133.02 128.439 132.81 128.385C132.546 128.315 132.331 128.245 132.164 128.175C132.001 128.101 131.861 127.988 131.744 127.837C131.628 127.685 131.569 127.483 131.569 127.231C131.569 126.998 131.628 126.794 131.744 126.619C131.861 126.444 132.024 126.31 132.234 126.217C132.443 126.124 132.686 126.077 132.962 126.077C133.354 126.077 133.675 126.176 133.923 126.374C134.176 126.569 134.316 126.837 134.343 127.178H133.609C133.597 127.031 133.527 126.905 133.399 126.8C133.271 126.695 133.102 126.642 132.892 126.642C132.702 126.642 132.546 126.691 132.426 126.788C132.305 126.885 132.245 127.025 132.245 127.208C132.245 127.332 132.282 127.435 132.356 127.516C132.434 127.594 132.531 127.656 132.647 127.703C132.764 127.749 132.923 127.8 133.125 127.854C133.393 127.928 133.611 128.002 133.778 128.076C133.949 128.15 134.092 128.264 134.209 128.419C134.329 128.571 134.389 128.775 134.389 129.031C134.389 129.237 134.333 129.431 134.22 129.614C134.112 129.796 133.95 129.944 133.737 130.057C133.527 130.165 133.278 130.22 132.991 130.22ZM138.115 128.495C138.115 128.616 138.108 128.724 138.092 128.822H135.639C135.659 129.078 135.754 129.284 135.925 129.439C136.096 129.594 136.305 129.672 136.554 129.672C136.911 129.672 137.164 129.523 137.311 129.224H138.028C137.931 129.519 137.754 129.762 137.498 129.952C137.245 130.138 136.931 130.232 136.554 130.232C136.247 130.232 135.971 130.164 135.727 130.028C135.486 129.888 135.295 129.694 135.156 129.445C135.02 129.192 134.952 128.901 134.952 128.571C134.952 128.241 135.018 127.951 135.15 127.703C135.286 127.45 135.474 127.256 135.715 127.12C135.96 126.984 136.239 126.916 136.554 126.916C136.857 126.916 137.127 126.982 137.364 127.114C137.601 127.246 137.785 127.433 137.917 127.674C138.049 127.911 138.115 128.184 138.115 128.495ZM137.422 128.285C137.418 128.041 137.331 127.845 137.16 127.697C136.989 127.549 136.777 127.476 136.525 127.476C136.296 127.476 136.1 127.549 135.936 127.697C135.773 127.841 135.676 128.037 135.645 128.285H137.422ZM139.544 127.511V129.288C139.544 129.408 139.571 129.495 139.626 129.55C139.684 129.6 139.781 129.626 139.917 129.626H140.325V130.179H139.8C139.501 130.179 139.272 130.109 139.113 129.969C138.954 129.829 138.874 129.602 138.874 129.288V127.511H138.495V126.969H138.874V126.17H139.544V126.969H140.325V127.511H139.544ZM145.358 126.969V130.179H144.694V129.8C144.589 129.932 144.451 130.037 144.28 130.115C144.113 130.189 143.934 130.226 143.744 130.226C143.491 130.226 143.264 130.173 143.062 130.068C142.864 129.963 142.707 129.808 142.59 129.602C142.478 129.396 142.421 129.148 142.421 128.856V126.969H143.08V128.757C143.08 129.045 143.152 129.266 143.295 129.422C143.439 129.573 143.635 129.649 143.884 129.649C144.132 129.649 144.329 129.573 144.472 129.422C144.62 129.266 144.694 129.045 144.694 128.757V126.969H145.358ZM146.898 127.441C147.011 127.293 147.165 127.169 147.359 127.068C147.553 126.967 147.772 126.916 148.017 126.916C148.297 126.916 148.551 126.986 148.78 127.126C149.013 127.262 149.196 127.454 149.328 127.703C149.46 127.951 149.526 128.237 149.526 128.559C149.526 128.882 149.46 129.171 149.328 129.427C149.196 129.68 149.013 129.878 148.78 130.022C148.551 130.162 148.297 130.232 148.017 130.232C147.772 130.232 147.555 130.183 147.365 130.086C147.174 129.985 147.019 129.861 146.898 129.713V131.706H146.234V126.969H146.898V127.441ZM148.85 128.559C148.85 128.338 148.804 128.148 148.711 127.988C148.621 127.825 148.501 127.703 148.349 127.621C148.202 127.536 148.042 127.493 147.872 127.493C147.704 127.493 147.545 127.536 147.394 127.621C147.246 127.707 147.126 127.831 147.032 127.994C146.943 128.157 146.898 128.35 146.898 128.571C146.898 128.792 146.943 128.987 147.032 129.154C147.126 129.317 147.246 129.441 147.394 129.527C147.545 129.612 147.704 129.655 147.872 129.655C148.042 129.655 148.202 129.612 148.349 129.527C148.501 129.437 148.621 129.309 148.711 129.142C148.804 128.975 148.85 128.781 148.85 128.559ZM151.475 128.559C151.475 128.237 151.541 127.951 151.673 127.703C151.809 127.454 151.992 127.262 152.221 127.126C152.454 126.986 152.71 126.916 152.99 126.916C153.243 126.916 153.462 126.967 153.648 127.068C153.839 127.165 153.99 127.287 154.103 127.435V126.969H154.773V130.179H154.103V129.701C153.99 129.853 153.837 129.979 153.643 130.08C153.448 130.181 153.227 130.232 152.978 130.232C152.703 130.232 152.45 130.162 152.221 130.022C151.992 129.878 151.809 129.68 151.673 129.427C151.541 129.171 151.475 128.882 151.475 128.559ZM154.103 128.571C154.103 128.35 154.056 128.157 153.963 127.994C153.874 127.831 153.755 127.707 153.608 127.621C153.46 127.536 153.301 127.493 153.13 127.493C152.959 127.493 152.8 127.536 152.652 127.621C152.504 127.703 152.384 127.825 152.291 127.988C152.202 128.148 152.157 128.338 152.157 128.559C152.157 128.781 152.202 128.975 152.291 129.142C152.384 129.309 152.504 129.437 152.652 129.527C152.804 129.612 152.963 129.655 153.13 129.655C153.301 129.655 153.46 129.612 153.608 129.527C153.755 129.441 153.874 129.317 153.963 129.154C154.056 128.987 154.103 128.792 154.103 128.571ZM156.937 128.559C156.937 128.237 157.003 127.951 157.136 127.703C157.272 127.454 157.454 127.262 157.683 127.126C157.916 126.986 158.173 126.916 158.452 126.916C158.705 126.916 158.924 126.967 159.111 127.068C159.301 127.165 159.453 127.287 159.565 127.435V126.969H160.235V130.179H159.565V129.701C159.453 129.853 159.299 129.979 159.105 130.08C158.911 130.181 158.689 130.232 158.441 130.232C158.165 130.232 157.912 130.162 157.683 130.022C157.454 129.878 157.272 129.68 157.136 129.427C157.003 129.171 156.937 128.882 156.937 128.559ZM159.565 128.571C159.565 128.35 159.519 128.157 159.425 127.994C159.336 127.831 159.218 127.707 159.07 127.621C158.922 127.536 158.763 127.493 158.592 127.493C158.421 127.493 158.262 127.536 158.114 127.621C157.967 127.703 157.846 127.825 157.753 127.988C157.664 128.148 157.619 128.338 157.619 128.559C157.619 128.781 157.664 128.975 157.753 129.142C157.846 129.309 157.967 129.437 158.114 129.527C158.266 129.612 158.425 129.655 158.592 129.655C158.763 129.655 158.922 129.612 159.07 129.527C159.218 129.441 159.336 129.317 159.425 129.154C159.519 128.987 159.565 128.792 159.565 128.571ZM163.786 130.232C163.534 130.232 163.307 130.187 163.105 130.098C162.907 130.004 162.749 129.88 162.633 129.725C162.516 129.565 162.454 129.389 162.446 129.194H163.134C163.146 129.33 163.21 129.445 163.326 129.538C163.447 129.628 163.596 129.672 163.775 129.672C163.961 129.672 164.105 129.637 164.206 129.567C164.311 129.493 164.363 129.4 164.363 129.288C164.363 129.167 164.305 129.078 164.188 129.02C164.076 128.961 163.895 128.897 163.647 128.827C163.406 128.761 163.21 128.697 163.058 128.635C162.907 128.573 162.775 128.478 162.662 128.35C162.553 128.221 162.499 128.052 162.499 127.843C162.499 127.672 162.549 127.516 162.65 127.377C162.751 127.233 162.895 127.12 163.081 127.039C163.272 126.957 163.489 126.916 163.734 126.916C164.099 126.916 164.392 127.009 164.614 127.196C164.839 127.378 164.96 127.629 164.975 127.948H164.311C164.299 127.804 164.241 127.689 164.136 127.604C164.031 127.518 163.889 127.476 163.711 127.476C163.536 127.476 163.402 127.509 163.309 127.575C163.215 127.641 163.169 127.728 163.169 127.837C163.169 127.922 163.2 127.994 163.262 128.052C163.324 128.111 163.4 128.157 163.489 128.192C163.579 128.223 163.711 128.264 163.885 128.315C164.119 128.377 164.309 128.441 164.456 128.507C164.608 128.569 164.738 128.662 164.847 128.787C164.956 128.911 165.012 129.076 165.016 129.282C165.016 129.464 164.965 129.628 164.864 129.771C164.763 129.915 164.62 130.028 164.433 130.109C164.251 130.191 164.035 130.232 163.786 130.232ZM165.512 128.571C165.512 128.241 165.578 127.951 165.71 127.703C165.846 127.45 166.033 127.256 166.27 127.12C166.506 126.984 166.778 126.916 167.085 126.916C167.474 126.916 167.794 127.009 168.047 127.196C168.303 127.378 168.476 127.641 168.565 127.983H167.849C167.79 127.823 167.697 127.699 167.569 127.61C167.441 127.52 167.279 127.476 167.085 127.476C166.813 127.476 166.596 127.573 166.433 127.767C166.273 127.957 166.194 128.225 166.194 128.571C166.194 128.917 166.273 129.187 166.433 129.381C166.596 129.575 166.813 129.672 167.085 129.672C167.47 129.672 167.724 129.503 167.849 129.165H168.565C168.472 129.492 168.297 129.752 168.041 129.946C167.784 130.136 167.466 130.232 167.085 130.232C166.778 130.232 166.506 130.164 166.27 130.028C166.033 129.888 165.846 129.694 165.71 129.445C165.578 129.192 165.512 128.901 165.512 128.571ZM170.888 126.916C171.132 126.916 171.35 126.969 171.54 127.074C171.734 127.178 171.886 127.334 171.995 127.54C172.107 127.746 172.164 127.994 172.164 128.285V130.179H171.505V128.385C171.505 128.097 171.433 127.878 171.29 127.726C171.146 127.571 170.95 127.493 170.701 127.493C170.453 127.493 170.255 127.571 170.107 127.726C169.963 127.878 169.891 128.097 169.891 128.385V130.179H169.227V125.868H169.891V127.342C170.004 127.206 170.146 127.101 170.317 127.027C170.491 126.953 170.682 126.916 170.888 126.916ZM175.953 128.495C175.953 128.616 175.945 128.724 175.93 128.822H173.477C173.496 129.078 173.592 129.284 173.763 129.439C173.933 129.594 174.143 129.672 174.392 129.672C174.749 129.672 175.002 129.523 175.149 129.224H175.866C175.769 129.519 175.592 129.762 175.336 129.952C175.083 130.138 174.769 130.232 174.392 130.232C174.085 130.232 173.809 130.164 173.564 130.028C173.324 129.888 173.133 129.694 172.993 129.445C172.857 129.192 172.789 128.901 172.789 128.571C172.789 128.241 172.856 127.951 172.988 127.703C173.124 127.45 173.312 127.256 173.553 127.12C173.797 126.984 174.077 126.916 174.392 126.916C174.695 126.916 174.965 126.982 175.202 127.114C175.439 127.246 175.623 127.433 175.755 127.674C175.887 127.911 175.953 128.184 175.953 128.495ZM175.26 128.285C175.256 128.041 175.169 127.845 174.998 127.697C174.827 127.549 174.615 127.476 174.363 127.476C174.133 127.476 173.937 127.549 173.774 127.697C173.611 127.841 173.514 128.037 173.483 128.285H175.26ZM176.385 128.559C176.385 128.237 176.452 127.951 176.584 127.703C176.72 127.454 176.902 127.262 177.131 127.126C177.364 126.986 177.623 126.916 177.906 126.916C178.116 126.916 178.322 126.963 178.524 127.056C178.73 127.145 178.893 127.266 179.013 127.417V125.868H179.683V130.179H179.013V129.695C178.904 129.851 178.753 129.979 178.559 130.08C178.368 130.181 178.149 130.232 177.9 130.232C177.621 130.232 177.364 130.162 177.131 130.022C176.902 129.878 176.72 129.68 176.584 129.427C176.452 129.171 176.385 128.882 176.385 128.559ZM179.013 128.571C179.013 128.35 178.967 128.157 178.873 127.994C178.784 127.831 178.666 127.707 178.518 127.621C178.37 127.536 178.211 127.493 178.04 127.493C177.869 127.493 177.71 127.536 177.562 127.621C177.415 127.703 177.294 127.825 177.201 127.988C177.112 128.148 177.067 128.338 177.067 128.559C177.067 128.781 177.112 128.975 177.201 129.142C177.294 129.309 177.415 129.437 177.562 129.527C177.714 129.612 177.873 129.655 178.04 129.655C178.211 129.655 178.37 129.612 178.518 129.527C178.666 129.441 178.784 129.317 178.873 129.154C178.967 128.987 179.013 128.792 179.013 128.571ZM183.463 126.969V130.179H182.799V129.8C182.694 129.932 182.556 130.037 182.385 130.115C182.218 130.189 182.039 130.226 181.849 130.226C181.597 130.226 181.369 130.173 181.167 130.068C180.969 129.963 180.812 129.808 180.696 129.602C180.583 129.396 180.527 129.148 180.527 128.856V126.969H181.185V128.757C181.185 129.045 181.257 129.266 181.401 129.422C181.544 129.573 181.74 129.649 181.989 129.649C182.238 129.649 182.434 129.573 182.577 129.422C182.725 129.266 182.799 129.045 182.799 128.757V126.969H183.463ZM185.004 125.868V130.179H184.339V125.868H185.004ZM188.818 128.495C188.818 128.616 188.81 128.724 188.795 128.822H186.342C186.361 129.078 186.456 129.284 186.627 129.439C186.798 129.594 187.008 129.672 187.257 129.672C187.614 129.672 187.866 129.523 188.014 129.224H188.731C188.634 129.519 188.457 129.762 188.2 129.952C187.948 130.138 187.633 130.232 187.257 130.232C186.95 130.232 186.674 130.164 186.429 130.028C186.188 129.888 185.998 129.694 185.858 129.445C185.722 129.192 185.654 128.901 185.654 128.571C185.654 128.241 185.72 127.951 185.852 127.703C185.988 127.45 186.177 127.256 186.418 127.12C186.662 126.984 186.942 126.916 187.257 126.916C187.56 126.916 187.83 126.982 188.066 127.114C188.303 127.246 188.488 127.433 188.62 127.674C188.752 127.911 188.818 128.184 188.818 128.495ZM188.125 128.285C188.121 128.041 188.033 127.845 187.863 127.697C187.692 127.549 187.48 127.476 187.227 127.476C186.998 127.476 186.802 127.549 186.639 127.697C186.476 127.841 186.379 128.037 186.348 128.285H188.125ZM192.605 126.916C192.857 126.916 193.083 126.969 193.281 127.074C193.483 127.178 193.64 127.334 193.753 127.54C193.865 127.746 193.922 127.994 193.922 128.285V130.179H193.263V128.385C193.263 128.097 193.192 127.878 193.048 127.726C192.904 127.571 192.708 127.493 192.459 127.493C192.211 127.493 192.013 127.571 191.865 127.726C191.721 127.878 191.649 128.097 191.649 128.385V130.179H190.985V126.969H191.649V127.336C191.758 127.204 191.896 127.101 192.063 127.027C192.234 126.953 192.415 126.916 192.605 126.916ZM196.162 130.232C195.859 130.232 195.585 130.164 195.34 130.028C195.095 129.888 194.903 129.694 194.763 129.445C194.623 129.192 194.553 128.901 194.553 128.571C194.553 128.245 194.625 127.955 194.769 127.703C194.913 127.45 195.109 127.256 195.357 127.12C195.606 126.984 195.884 126.916 196.191 126.916C196.498 126.916 196.775 126.984 197.024 127.12C197.272 127.256 197.469 127.45 197.612 127.703C197.756 127.955 197.828 128.245 197.828 128.571C197.828 128.897 197.754 129.187 197.607 129.439C197.459 129.692 197.257 129.888 197.001 130.028C196.748 130.164 196.468 130.232 196.162 130.232ZM196.162 129.655C196.332 129.655 196.492 129.614 196.639 129.532C196.791 129.451 196.913 129.328 197.006 129.165C197.1 129.002 197.146 128.804 197.146 128.571C197.146 128.338 197.102 128.142 197.012 127.983C196.923 127.819 196.804 127.697 196.657 127.615C196.509 127.534 196.35 127.493 196.179 127.493C196.008 127.493 195.849 127.534 195.701 127.615C195.558 127.697 195.443 127.819 195.357 127.983C195.272 128.142 195.229 128.338 195.229 128.571C195.229 128.917 195.317 129.185 195.492 129.375C195.67 129.561 195.894 129.655 196.162 129.655ZM202.796 126.969L201.8 130.179H201.101L200.454 127.808L199.807 130.179H199.108L198.106 126.969H198.782L199.452 129.55L200.133 126.969H200.827L201.479 129.538L202.144 126.969H202.796ZM204.126 126.13L204.05 128.956H203.496L203.421 126.13H204.126ZM203.794 130.22C203.673 130.22 203.572 130.179 203.491 130.098C203.409 130.016 203.368 129.915 203.368 129.795C203.368 129.674 203.409 129.573 203.491 129.492C203.572 129.41 203.673 129.369 203.794 129.369C203.91 129.369 204.009 129.41 204.091 129.492C204.172 129.573 204.213 129.674 204.213 129.795C204.213 129.915 204.172 130.016 204.091 130.098C204.009 130.179 203.91 130.22 203.794 130.22Z" fill="white"/>
<path d="M127.899 91.068C127.077 91.068 126.397 90.877 125.86 90.495C125.329 90.1066 125.041 89.5402 124.996 88.7957H127.287C127.32 89.1906 127.494 89.388 127.812 89.388C127.928 89.388 128.025 89.3621 128.103 89.3103C128.187 89.2521 128.229 89.1647 128.229 89.0481C128.229 88.8863 128.142 88.7568 127.967 88.6597C127.792 88.5561 127.52 88.4396 127.151 88.3101C126.711 88.1548 126.345 88.0026 126.054 87.8537C125.769 87.7048 125.523 87.4879 125.316 87.2031C125.109 86.9183 125.009 86.5525 125.015 86.1058C125.015 85.6591 125.128 85.2804 125.355 84.9696C125.588 84.6524 125.902 84.4129 126.297 84.251C126.698 84.0892 127.148 84.0083 127.647 84.0083C128.488 84.0083 129.155 84.2025 129.647 84.5909C130.145 84.9793 130.408 85.5264 130.434 86.232H128.113C128.106 86.0378 128.058 85.8986 127.967 85.8145C127.876 85.7303 127.766 85.6882 127.637 85.6882C127.546 85.6882 127.472 85.7206 127.414 85.7853C127.355 85.8436 127.326 85.9278 127.326 86.0378C127.326 86.1932 127.41 86.3227 127.579 86.4262C127.753 86.5233 128.029 86.6431 128.404 86.7855C128.838 86.9474 129.194 87.1028 129.472 87.2517C129.757 87.4006 130.003 87.6077 130.21 87.8731C130.417 88.1386 130.521 88.472 130.521 88.8733C130.521 89.2941 130.417 89.6729 130.21 90.0095C130.003 90.3397 129.702 90.5986 129.307 90.7864C128.912 90.9741 128.443 91.068 127.899 91.068ZM134.687 89.1647V91H133.871C132.369 91 131.618 90.2523 131.618 88.7568V87.3196H130.939V85.5231H131.618V84.2025H133.774V85.5231H134.667V87.3196H133.774V88.7957C133.774 88.9251 133.803 89.019 133.861 89.0773C133.926 89.1355 134.03 89.1647 134.172 89.1647H134.687ZM135.217 88.2616C135.217 87.6854 135.314 87.1869 135.508 86.7661C135.709 86.3388 135.98 86.0152 136.324 85.795C136.667 85.5685 137.052 85.4552 137.479 85.4552C137.835 85.4552 138.143 85.5296 138.402 85.6785C138.661 85.8209 138.858 86.0184 138.994 86.2709V85.5231H141.14V91H138.994V90.2523C138.858 90.5048 138.661 90.7054 138.402 90.8543C138.143 90.9968 137.835 91.068 137.479 91.068C137.052 91.068 136.667 90.9579 136.324 90.7378C135.98 90.5112 135.709 90.1875 135.508 89.7667C135.314 89.3395 135.217 88.8377 135.217 88.2616ZM138.994 88.2616C138.994 87.9702 138.92 87.7437 138.771 87.5818C138.622 87.42 138.431 87.339 138.198 87.339C137.965 87.339 137.774 87.42 137.625 87.5818C137.476 87.7437 137.401 87.9702 137.401 88.2616C137.401 88.5529 137.476 88.7795 137.625 88.9413C137.774 89.1032 137.965 89.1841 138.198 89.1841C138.431 89.1841 138.622 89.1032 138.771 88.9413C138.92 88.7795 138.994 88.5529 138.994 88.2616ZM148.294 85.5231L144.788 93.6219H142.429L143.808 90.7281L141.526 85.5231H143.924L144.953 88.3004L145.915 85.5231H148.294ZM151.418 85.0862C151.042 85.0862 150.741 84.9858 150.515 84.7851C150.288 84.5844 150.175 84.332 150.175 84.0277C150.175 83.7169 150.288 83.4612 150.515 83.2605C150.741 83.0534 151.042 82.9498 151.418 82.9498C151.787 82.9498 152.084 83.0534 152.311 83.2605C152.538 83.4612 152.651 83.7169 152.651 84.0277C152.651 84.332 152.538 84.5844 152.311 84.7851C152.084 84.9858 151.787 85.0862 151.418 85.0862ZM152.486 85.5231V91H150.33V85.5231H152.486ZM157.295 85.4843C157.923 85.4843 158.412 85.6947 158.762 86.1155C159.118 86.5363 159.296 87.106 159.296 87.8246V91H157.15V88.0965C157.15 87.8375 157.078 87.6336 156.936 87.4847C156.8 87.3293 156.615 87.2517 156.382 87.2517C156.143 87.2517 155.955 87.3293 155.819 87.4847C155.683 87.6336 155.615 87.8375 155.615 88.0965V91H153.459V85.5231H155.615V86.3583C155.784 86.0993 156.007 85.8889 156.285 85.7271C156.57 85.5652 156.907 85.4843 157.295 85.4843ZM164.57 91.068C163.748 91.068 163.068 90.877 162.531 90.495C162 90.1066 161.712 89.5402 161.667 88.7957H163.959C163.991 89.1906 164.166 89.388 164.483 89.388C164.6 89.388 164.697 89.3621 164.774 89.3103C164.858 89.2521 164.901 89.1647 164.901 89.0481C164.901 88.8863 164.813 88.7568 164.638 88.6597C164.464 88.5561 164.192 88.4396 163.823 88.3101C163.382 88.1548 163.017 88.0026 162.725 87.8537C162.441 87.7048 162.195 87.4879 161.987 87.2031C161.78 86.9183 161.68 86.5525 161.686 86.1058C161.686 85.6591 161.8 85.2804 162.026 84.9696C162.259 84.6524 162.573 84.4129 162.968 84.251C163.37 84.0892 163.819 84.0083 164.318 84.0083C165.16 84.0083 165.826 84.2025 166.318 84.5909C166.817 84.9793 167.079 85.5264 167.105 86.232H164.784C164.778 86.0378 164.729 85.8986 164.638 85.8145C164.548 85.7303 164.438 85.6882 164.308 85.6882C164.218 85.6882 164.143 85.7206 164.085 85.7853C164.027 85.8436 163.997 85.9278 163.997 86.0378C163.997 86.1932 164.082 86.3227 164.25 86.4262C164.425 86.5233 164.7 86.6431 165.075 86.7855C165.509 86.9474 165.865 87.1028 166.144 87.2517C166.428 87.4006 166.674 87.6077 166.882 87.8731C167.089 88.1386 167.192 88.472 167.192 88.8733C167.192 89.2941 167.089 89.6729 166.882 90.0095C166.674 90.3397 166.373 90.5986 165.978 90.7864C165.584 90.9741 165.114 91.068 164.57 91.068ZM174.135 85.5231L170.63 93.6219H168.27L169.649 90.7281L167.367 85.5231H169.766L170.795 88.3004L171.756 85.5231H174.135ZM178.357 85.4843C178.985 85.4843 179.474 85.6947 179.824 86.1155C180.18 86.5363 180.358 87.106 180.358 87.8246V91H178.212V88.0965C178.212 87.8375 178.14 87.6336 177.998 87.4847C177.862 87.3293 177.678 87.2517 177.444 87.2517C177.205 87.2517 177.017 87.3293 176.881 87.4847C176.745 87.6336 176.677 87.8375 176.677 88.0965V91H174.522V85.5231H176.677V86.3583C176.846 86.0993 177.069 85.8889 177.347 85.7271C177.632 85.5652 177.969 85.4843 178.357 85.4843ZM181.001 88.2616C181.001 87.6919 181.118 87.1966 181.351 86.7758C181.59 86.3486 181.92 86.0216 182.341 85.795C182.769 85.5685 183.254 85.4552 183.798 85.4552C184.51 85.4552 185.109 85.6559 185.594 86.0572C186.086 86.4586 186.397 87.0154 186.527 87.7275H184.245C184.16 87.4426 183.995 87.3002 183.749 87.3002C183.575 87.3002 183.435 87.3811 183.332 87.543C183.235 87.7048 183.186 87.9444 183.186 88.2616C183.186 88.5788 183.235 88.8183 183.332 88.9802C183.435 89.142 183.575 89.2229 183.749 89.2229C183.995 89.2229 184.16 89.0805 184.245 88.7957H186.527C186.397 89.5078 186.086 90.0645 185.594 90.4659C185.109 90.8673 184.51 91.068 183.798 91.068C183.254 91.068 182.769 90.9547 182.341 90.7281C181.92 90.5015 181.59 90.1778 181.351 89.757C181.118 89.3298 181.001 88.8313 181.001 88.2616ZM197.172 85.5231L195.871 91H193.444L192.783 87.912L192.084 91H189.656L188.365 85.5231H190.501L190.958 88.8539L191.666 85.5231H193.968L194.716 88.8928L195.182 85.5231H197.172ZM198.72 85.0862C198.344 85.0862 198.043 84.9858 197.816 84.7851C197.59 84.5844 197.477 84.332 197.477 84.0277C197.477 83.7169 197.59 83.4612 197.816 83.2605C198.043 83.0534 198.344 82.9498 198.72 82.9498C199.089 82.9498 199.386 83.0534 199.613 83.2605C199.84 83.4612 199.953 83.7169 199.953 84.0277C199.953 84.332 199.84 84.5844 199.613 84.7851C199.386 84.9858 199.089 85.0862 198.72 85.0862ZM199.788 85.5231V91H197.632V85.5231H199.788ZM204.17 89.1647V91H203.354C201.852 91 201.101 90.2523 201.101 88.7568V87.3196H200.422V85.5231H201.101V84.2025H203.257V85.5231H204.15V87.3196H203.257V88.7957C203.257 88.9251 203.286 89.019 203.344 89.0773C203.409 89.1355 203.513 89.1647 203.655 89.1647H204.17ZM208.827 85.4843C209.455 85.4843 209.943 85.6947 210.293 86.1155C210.649 86.5363 210.827 87.106 210.827 87.8246V91H208.681V88.0965C208.681 87.8375 208.61 87.6336 208.467 87.4847C208.331 87.3293 208.147 87.2517 207.914 87.2517C207.674 87.2517 207.487 87.3293 207.351 87.4847C207.215 87.6336 207.147 87.8375 207.147 88.0965V91H204.991V83.814H207.147V86.3583C207.315 86.0993 207.538 85.8889 207.817 85.7271C208.102 85.5652 208.438 85.4843 208.827 85.4843ZM154.228 95.1248V96.8339H151.528V97.7855H153.47V99.4072H151.528V102H149.372V95.1248H154.228ZM157.114 97.5331C157.334 97.2158 157.602 96.9634 157.92 96.7756C158.237 96.5814 158.567 96.4843 158.91 96.4843V98.7857H158.298C157.89 98.7857 157.589 98.857 157.395 98.9994C157.207 99.1418 157.114 99.3943 157.114 99.7568V102H154.958V96.5231H157.114V97.5331ZM160.578 96.0862C160.203 96.0862 159.902 95.9858 159.675 95.7851C159.449 95.5844 159.335 95.332 159.335 95.0277C159.335 94.7169 159.449 94.4612 159.675 94.2605C159.902 94.0534 160.203 93.9498 160.578 93.9498C160.947 93.9498 161.245 94.0534 161.472 94.2605C161.698 94.4612 161.812 94.7169 161.812 95.0277C161.812 95.332 161.698 95.5844 161.472 95.7851C161.245 95.9858 160.947 96.0862 160.578 96.0862ZM161.647 96.5231V102H159.491V96.5231H161.647ZM167.922 99.213C167.922 99.3619 167.913 99.5043 167.893 99.6403H164.426C164.459 100.113 164.656 100.349 165.019 100.349C165.252 100.349 165.42 100.242 165.524 100.029H167.806C167.728 100.417 167.563 100.767 167.311 101.077C167.064 101.382 166.751 101.625 166.369 101.806C165.993 101.981 165.579 102.068 165.126 102.068C164.582 102.068 164.096 101.955 163.669 101.728C163.248 101.502 162.918 101.178 162.678 100.757C162.445 100.33 162.329 99.8313 162.329 99.2616C162.329 98.6919 162.445 98.1966 162.678 97.7758C162.918 97.3486 163.248 97.0216 163.669 96.795C164.096 96.5685 164.582 96.4552 165.126 96.4552C165.669 96.4552 166.152 96.5685 166.572 96.795C167 97.0152 167.33 97.3324 167.563 97.7467C167.803 98.161 167.922 98.6498 167.922 99.213ZM165.737 98.6983C165.737 98.5171 165.679 98.3811 165.563 98.2905C165.446 98.1934 165.3 98.1448 165.126 98.1448C164.744 98.1448 164.52 98.3293 164.456 98.6983H165.737ZM172.44 96.4843C173.068 96.4843 173.557 96.6947 173.906 97.1155C174.262 97.5363 174.44 98.106 174.44 98.8246V102H172.294V99.0965C172.294 98.8375 172.223 98.6336 172.081 98.4847C171.945 98.3293 171.76 98.2517 171.527 98.2517C171.287 98.2517 171.1 98.3293 170.964 98.4847C170.828 98.6336 170.76 98.8375 170.76 99.0965V102H168.604V96.5231H170.76V97.3583C170.928 97.0993 171.152 96.8889 171.43 96.7271C171.715 96.5652 172.051 96.4843 172.44 96.4843ZM175.084 99.2616C175.084 98.6854 175.181 98.1869 175.375 97.7661C175.576 97.3388 175.848 97.0152 176.191 96.795C176.534 96.5685 176.919 96.4552 177.346 96.4552C177.702 96.4552 178.007 96.5296 178.259 96.6785C178.518 96.8209 178.716 97.0184 178.851 97.2709V94.814H181.007V102H178.851V101.252C178.716 101.505 178.518 101.705 178.259 101.854C178.007 101.997 177.702 102.068 177.346 102.068C176.919 102.068 176.534 101.958 176.191 101.738C175.848 101.511 175.576 101.188 175.375 100.767C175.181 100.339 175.084 99.8377 175.084 99.2616ZM178.861 99.2616C178.861 98.9702 178.787 98.7437 178.638 98.5818C178.489 98.42 178.298 98.339 178.065 98.339C177.832 98.339 177.641 98.42 177.492 98.5818C177.343 98.7437 177.269 98.9702 177.269 99.2616C177.269 99.5529 177.343 99.7795 177.492 99.9413C177.641 100.103 177.832 100.184 178.065 100.184C178.298 100.184 178.489 100.103 178.638 99.9413C178.787 99.7795 178.861 99.5529 178.861 99.2616ZM184.413 102.068C183.895 102.068 183.435 101.984 183.034 101.815C182.639 101.647 182.325 101.414 182.092 101.116C181.859 100.819 181.726 100.482 181.694 100.106H183.762C183.788 100.268 183.856 100.388 183.966 100.466C184.083 100.543 184.228 100.582 184.403 100.582C184.513 100.582 184.6 100.56 184.665 100.514C184.73 100.462 184.762 100.401 184.762 100.33C184.762 100.207 184.694 100.119 184.558 100.068C184.422 100.016 184.193 99.9575 183.869 99.8928C183.474 99.8151 183.147 99.7309 182.888 99.6403C182.636 99.5497 182.412 99.3943 182.218 99.1742C182.03 98.9541 181.936 98.6498 181.936 98.2614C181.936 97.9247 182.024 97.6205 182.199 97.3486C182.38 97.0702 182.645 96.8533 182.995 96.6979C183.345 96.5361 183.769 96.4552 184.267 96.4552C185.005 96.4552 185.581 96.6364 185.996 96.999C186.416 97.3615 186.669 97.8341 186.753 98.4167H184.84C184.808 98.2678 184.74 98.1545 184.636 98.0769C184.532 97.9927 184.393 97.9506 184.218 97.9506C184.108 97.9506 184.024 97.9733 183.966 98.0186C183.908 98.0574 183.879 98.1189 183.879 98.2031C183.879 98.3132 183.947 98.3973 184.083 98.4556C184.218 98.5074 184.435 98.5624 184.733 98.6207C185.128 98.6983 185.461 98.7857 185.733 98.8829C186.005 98.98 186.242 99.1483 186.442 99.3878C186.643 99.6209 186.743 99.9446 186.743 100.359C186.743 100.683 186.649 100.974 186.462 101.233C186.274 101.492 186.002 101.696 185.646 101.845C185.296 101.994 184.885 102.068 184.413 102.068Z" fill="#3C4242"/>
</svg>
